PathFileType	4	(X/Y/Z)	Exemple_fichier.trc																																																																																																																															
DataRate	CameraRate	NumFrames	NumMarkers	Units	OrigDataRate	OrigDataStartFrame	OrigNumFrames																																																																																																																											
200	200	6	43	mm	200	1251	2000																																																																																																																											
Frame#	Time	LFHD			RFHD			RBHD			LBHD			C7			T10			R10			CLAV			STRN			LSHO			LUPA			LELB			LFRA			LWRA			LWRB			LFIN0			LFINx			LFINy			RSHO			RUPA			RELB			RFRA			RWRA			RWRB			RFIN0			RFINx			RFINy			LASI			RASI			RBSI			LBSI			LTHI			LKNE			LTIB			LANK			LHEE			LTOE			RTHI			RKNE			RTIB			RANK			RHEE			RTOE		
		X1	Y1	Z1	X2	Y2	Z2	X3	Y3	Z3	X4	Y4	Z4	X5	Y5	Z5	X6	Y6	Z6	X7	Y7	Z7	X8	Y8	Z8	X9	Y9	Z9	X10	Y10	Z10	X11	Y11	Z11	X12	Y12	Z12	X13	Y13	Z13	X14	Y14	Z14	X15	Y15	Z15	X16	Y16	Z16	X17	Y17	Z17	X18	Y18	Z18	X19	Y19	Z19	X20	Y20	Z20	X21	Y21	Z21	X22	Y22	Z22	X23	Y23	Z23	X24	Y24	Z24	X25	Y25	Z25	X26	Y26	Z26	X27	Y27	Z27	X28	Y28	Z28	X29	Y29	Z29	X30	Y30	Z30	X31	Y31	Z31	X32	Y32	Z32	X33	Y33	Z33	X34	Y34	Z34	X35	Y35	Z35	X36	Y36	Z36	X37	Y37	Z37	X38	Y38	Z38	X39	Y39	Z39	X40	Y40	Z40	X41	Y41	Z41	X42	Y42	Z42	X43	Y43	Z43
																																																																																																																																		
1251	6.25	402.37808	313.77448	1432.99902	506.46317	304.75708	1424.58118	502.29379	154.24666	1410.00354	392.45145	158.43114	1419.68079	441.60742	98.00581	1294.47583	445.44333	59.68156	1153.80054	606.14948	110.65373	1186.68689	448.20035	217.37126	1226.89734	446.62369	320.75998	1094.85095	297.30246	181.95602	1251.64355	240.87422	228.04501	1100.8092	208.76784	244.38963	958.83002	248.67183	351.28528	972.45721	306.40179	448.93887	960.71112	304.81268	444.79214	913.59973	342.89407	474.96283	910.62396	359.15643	487.60886	912.25122	335.74548	489.66342	942.07355	593.61426	173.40427	1255.15417	696.74622	280.52405	1110.78528	747.90753	300.87167	1054.77832	675.57001	459.27734	1031.22498	633.58856	502.38553	1022.3855	659.0647	504.56915	981.22662	607.841	520.38196	948.65851	589.31226	521.15692	939.73193	593.896	535.66034	972.38116	321.91556	262.26965	892.55859	558.09021	273.6077	887.69733	482.25342	95.75717	912.33588	410.33698	95.58745	914.08038	343.73187	294.3898	634.81378	298.28955	160.03268	448.57867	322.67209	196.6776	323.22794	309.26764	124.16547	81.51928	356.82849	88.65556	15.27568	288.7626	329.03403	50.06413	539.88934	282.47012	556.6004	611.6571	174.08295	439.92935	588.87708	194.04405	236.81923	608.35687	144.3802	75.95831	572.09436	93.22961	14.65593	612.40247	339.29471	47.83733
1252	6.255	402.37292	313.7489	1433.03491	506.38376	304.68365	1424.62854	502.26035	154.20735	1409.97058	392.40738	158.43573	1419.65247	441.64233	97.99822	1294.4906	445.46024	59.51984	1153.7594	606.17163	110.59921	1186.79419	448.21509	217.33368	1226.87329	446.54694	320.78137	1094.83215	297.3205	181.81612	1251.68738	240.86362	228.00943	1100.8158	208.64221	244.22752	958.90875	248.64227	351.24969	972.52966	306.32104	448.90424	960.69489	304.67722	444.79214	913.64539	342.84967	475.00522	910.62659	359.05621	487.56677	912.23358	335.63257	489.58392	942.06732	593.62915	173.40353	1255.17151	696.91467	280.45392	1110.93579	748.104	300.72974	1055.04163	675.98438	459.1221	1031.30737	634.01208	502.34814	1022.41394	659.43781	504.46497	981.37952	608.45111	520.2854	948.69055	589.73901	521.16736	939.76752	594.34894	535.47998	972.34918	321.91339	262.18323	892.58307	558.05945	273.63232	887.71967	482.18634	95.76072	912.38708	410.35809	95.49786	914.07617	343.73984	294.27948	634.77472	298.26947	159.97755	448.56366	322.60516	196.59122	323.21771	309.26764	124.16547	81.51928	356.81638	88.64004	15.29602	288.78787	329.05533	50.07055	539.85028	282.49698	556.63251	611.67596	174.16331	439.94363	588.84082	194.11093	236.85339	608.39325	144.39513	75.92817	572.12512	93.26056	14.72074	612.42889	339.3876	47.87476
1253	6.26	402.2941	313.66571	1433.04785	506.35361	304.66422	1424.67236	502.26874	154.25105	1410.03137	392.40314	158.41418	1419.61963	441.69302	97.98239	1294.50244	445.48404	59.73178	1153.78638	606.17633	110.60569	1186.81702	448.19986	217.32803	1226.86938	446.52765	320.77335	1094.87183	297.28983	181.70427	1251.67163	240.78937	227.95227	1100.89539	208.6088	244.25963	958.96936	248.58725	351.22375	972.52948	306.25739	448.86383	960.73016	304.67871	444.75537	913.64691	342.75519	474.93518	910.6709	359.02405	487.56958	912.21661	335.59003	489.57373	942.05853	593.64966	173.39381	1255.26563	697.12964	280.38028	1111.12012	748.38525	300.60956	1055.11267	676.32318	459.06049	1031.39783	634.45605	502.25928	1022.44482	659.96985	504.24991	981.40442	608.79376	520.23859	948.68561	590.34772	520.98376	939.67731	594.87982	535.42303	972.28259	321.86426	262.15781	892.54089	558.10938	273.62125	887.70068	482.34552	95.73627	912.35559	410.43979	95.45598	914.10229	343.70026	294.18066	634.73639	298.31265	159.86154	448.54147	322.56418	196.56812	323.22433	309.26764	124.16547	81.51928	356.81619	88.6296	15.33766	288.78754	329.06577	50.0972	539.79962	282.52377	556.58441	611.71124	174.18575	439.96701	588.85547	194.05666	236.82207	608.34375	144.36465	75.96666	572.14105	93.30742	14.71984	612.49042	339.39822	47.91063
1254	6.265	402.24127	313.61395	1433.03784	506.34311	304.64023	1424.79138	502.29803	154.19066	1410.04053	392.40408	158.33495	1419.57849	441.647	97.98341	1294.48962	445.49524	59.62917	1153.75781	606.13293	110.59648	1186.85962	448.20203	217.27214	1226.87256	446.4086	320.71957	1094.89063	297.28983	181.70427	1251.67163	240.88672	227.77614	1100.92371	208.53456	244.23593	958.99017	248.56999	351.12595	972.54279	306.20877	448.84683	960.74414	304.55994	444.68756	913.66779	342.68381	474.9176	910.65381	358.97775	487.50992	912.19049	335.49423	489.56665	942.05493	593.61176	173.35641	1255.29895	697.35919	280.2576	1111.23804	748.6604	300.43979	1055.24414	676.6214	458.8696	1031.47192	634.85291	502.14267	1022.4455	660.32813	504.15073	981.34772	609.3606	520.0434	948.63715	590.82501	520.87885	939.62305	595.3056	535.33685	972.20966	321.83652	262.14722	892.53802	558.11658	273.5332	887.73438	482.33853	95.7503	912.37799	410.46732	95.33978	914.11255	343.68439	294.06027	634.70251	298.2746	159.7299	448.54816	322.38928	196.11456	323.28494	309.26764	124.16547	81.51928	356.88483	88.70609	15.32895	288.79889	329.03467	50.03692	539.77014	282.55307	556.55414	611.66492	174.19411	439.91287	588.85547	194.05666	236.82207	608.35168	144.39664	75.99514	572.13965	93.27429	14.69837	612.4491	339.38565	47.91321
1255	6.27	402.18259	313.55823	1433.052	506.26547	304.59256	1424.78296	502.26852	154.20168	1410.05847	392.39676	158.30156	1419.60217	441.65988	97.93699	1294.4635	445.49216	59.64877	1153.80151	606.13898	110.5929	1186.84949	448.18744	217.23642	1226.85986	446.38608	320.71408	1094.89978	297.28259	181.63965	1251.67139	240.85025	227.68684	1100.97498	208.45152	244.21198	958.98889	248.50417	351.09732	972.54321	306.10904	448.77246	960.78235	304.47644	444.62161	913.66632	342.62396	474.90881	910.67822	358.89893	487.50311	912.19116	335.42383	489.53391	942.08447	593.62787	173.33632	1255.34119	697.53223	280.10449	1111.36267	748.94489	300.31299	1055.41809	676.99451	458.69867	1031.53027	635.2099	502.0784	1022.3833	660.80536	503.96527	981.35486	609.81073	519.81689	948.55475	591.30341	520.77173	939.64551	595.82141	535.28473	972.19281	321.78915	262.05148	892.53918	558.15112	273.60242	887.69458	482.36377	95.77228	912.36505	410.48456	95.32087	914.15912	343.66296	294.03299	634.729	298.28326	159.7383	448.56635	322.5213	196.54787	323.24457	309.26764	124.16547	81.51928	356.85483	88.67503	15.32979	288.78787	329.05533	50.07055	539.75781	282.56082	556.55206	611.65704	174.218	439.94104	588.84192	194.07906	236.80505	608.34375	144.36465	75.96666	572.09967	93.26494	14.69596	612.3963	339.32828	47.88037
1256	6.275	402.19144	313.50708	1433.09143	506.22427	304.49417	1424.81775	502.25708	154.13484	1410.04395	392.38794	158.14143	1419.55054	441.73099	97.88842	1294.51501	445.50842	59.59104	1153.82153	606.17291	110.51202	1186.88269	448.19293	217.21562	1226.87634	446.22803	320.67148	1094.93628	297.2731	181.60425	1251.70728	240.8297	227.65977	1100.99329	208.38939	244.13269	959.02423	248.35927	351.10034	972.62537	306.03629	448.77286	960.797	304.42645	444.60757	913.67584	342.51089	474.89304	910.6944	358.81067	487.47409	912.16156	335.379	489.52139	942.10895	593.61646	173.2888	1255.3645	697.72937	279.96228	1111.59644	749.18164	300.10831	1055.57178	677.31708	458.61957	1031.53442	635.73346	501.98294	1022.38873	661.25433	503.72018	981.33411	610.2124	519.69836	948.47522	591.77179	520.65869	939.58411	596.23016	535.16565	972.14685	321.7243	262.01797	892.56268	558.15961	273.43494	887.76666	482.44446	95.72878	912.3371	410.52585	95.31277	914.13873	343.49194	293.87488	634.68085	298.25323	159.72595	448.54059	322.5213	196.54787	323.24457	309.26764	124.16547	81.51928	356.87729	88.60597	15.35938	288.76703	329.05609	50.07919	539.63477	282.58847	556.54797	611.59991	174.24835	439.89282	588.84192	194.07906	236.80505	608.40936	144.35861	75.94364	572.09113	93.23847	14.7121	612.46149	339.39828	47.89343
